<?xml version="1.0" standalone="no"?>
<!DOCTYPE svg PUBLIC "-//W3C//DTD SVG 20010904//EN"
 "http://www.w3.org/TR/2001/REC-SVG-20010904/DTD/svg10.dtd">
<svg version="1.0" xmlns="http://www.w3.org/2000/svg"
 width="150.000000pt" height="150.000000pt" viewBox="0 0 150.000000 150.000000"
 preserveAspectRatio="xMidYMid meet">

<g transform="translate(0.000000,150.000000) scale(0.100000,-0.100000)"
fill="#000000" stroke="none">
<path d="M751 1044 c0 -11 3 -14 6 -6 3 7 2 16 -1 19 -3 4 -6 -2 -5 -13z"/>
<path d="M713 1016 c23 -18 21 -24 -7 -19 -13 3 -26 1 -29 -4 -3 -5 6 -9 21
-8 19 0 29 -7 36 -26 17 -49 5 -59 -79 -59 -68 0 -75 2 -75 20 0 11 -7 20 -15
20 -18 0 -20 -46 -4 -120 20 -92 107 -160 204 -160 38 0 104 30 129 59 12 13
31 21 51 21 18 0 44 9 59 21 48 38 27 149 -29 149 -8 0 -15 7 -15 15 0 8 -7
15 -15 15 -8 0 -15 -9 -15 -20 0 -18 -7 -20 -85 -20 -85 0 -85 0 -85 26 0 32
23 56 47 48 15 -5 15 -4 3 5 -8 6 -23 8 -32 5 -12 -4 -18 0 -18 11 0 9 -4 14
-9 11 -5 -3 -14 1 -21 9 -7 8 -18 15 -24 15 -6 0 -3 -7 7 -14z m278 -136 c28
-16 27 -84 -3 -104 -12 -9 -30 -16 -40 -16 -16 0 -16 3 -3 41 8 23 15 52 15
65 0 27 3 28 31 14z"/>
<path d="M1300 635 c-7 -9 -10 -18 -7 -22 8 -7 37 15 37 28 0 14 -16 11 -30
-6z"/>
<path d="M200 620 c-29 -29 -28 -103 2 -124 23 -17 55 -20 82 -10 28 11 18 27
-14 21 -35 -7 -60 13 -60 48 0 44 10 55 51 55 40 0 52 13 23 24 -30 12 -64 6
-84 -14z"/>
<path d="M527 620 c4 -16 0 -20 -19 -20 -33 0 -58 -29 -58 -67 0 -39 15 -51
68 -50 l42 0 0 78 c0 71 -2 79 -19 79 -14 0 -18 -5 -14 -20z m1 -81 c2 -17 -3
-29 -13 -33 -25 -9 -35 1 -35 35 0 26 3 30 23 27 15 -2 23 -11 25 -29z"/>
<path d="M900 620 c-13 -13 -20 -33 -20 -60 0 -62 47 -96 104 -74 28 11 17 23
-20 22 -38 -1 -54 12 -54 49 0 42 10 53 51 53 40 0 52 13 23 24 -30 12 -64 6
-84 -14z"/>
<path d="M1171 627 c-22 -27 -19 -147 4 -147 11 0 15 12 15 44 0 33 5 46 18
51 16 6 16 7 -2 17 -18 10 -18 11 5 29 l24 19 -26 0 c-15 0 -32 -6 -38 -13z"/>
<path d="M340 580 c-25 -25 -26 -62 -1 -84 22 -20 72 -18 79 3 3 9 -2 11 -17
6 -11 -3 -29 -2 -38 4 -11 6 -13 11 -5 12 6 1 17 3 22 4 6 1 16 3 24 4 22 2
28 32 10 52 -22 25 -49 24 -74 -1z m55 -20 c4 -6 -5 -10 -20 -10 -15 0 -24 4
-20 10 3 6 12 10 20 10 8 0 17 -4 20 -10z"/>
<path d="M608 589 c-24 -14 -26 -109 -3 -109 11 0 15 12 15 44 0 39 3 45 23
48 12 2 22 8 22 13 0 14 -37 17 -57 4z"/>
<path d="M702 584 c-43 -30 -20 -104 33 -104 53 0 76 74 33 104 -12 9 -27 16
-33 16 -6 0 -21 -7 -33 -16z m56 -46 c-2 -25 -8 -33 -23 -33 -20 0 -31 25 -21
51 3 8 15 14 26 14 18 0 21 -5 18 -32z"/>
<path d="M1040 580 c-22 -22 -26 -51 -10 -80 7 -14 21 -18 55 -18 l45 1 0 52
c0 46 -3 53 -22 59 -36 9 -47 7 -68 -14z m58 -42 c-3 -36 -24 -44 -41 -17 -14
23 -2 49 23 49 18 0 21 -5 18 -32z"/>
<path d="M1256 584 c-24 -23 -21 -81 5 -94 25 -14 61 -9 67 9 3 9 -2 11 -17 6
-11 -3 -26 -3 -32 1 -7 4 1 11 22 18 39 13 50 43 23 63 -24 17 -49 16 -68 -3z
m54 -24 c0 -5 -9 -10 -20 -10 -11 0 -20 5 -20 10 0 6 9 10 20 10 11 0 20 -4
20 -10z"/>
</g>
</svg>
